<svg xmlns="http://www.w3.org/2000/svg" width="84" height="84" viewBox="0 0 84 84">
  <defs>
    <style>
      .cls-1 {
        fill: #fff;
      }
    </style>
  </defs>
  <g id="Group_33" data-name="Group 33" transform="translate(-545 -455)">
    <path id="Ellipse_2" data-name="Ellipse 2" class="cls-1" d="M42,3A39.011,39.011,0,0,0,26.82,77.936,39.011,39.011,0,0,0,57.18,6.064,38.753,38.753,0,0,0,42,3m0-3A42,42,0,1,1,0,42,42,42,0,0,1,42,0Z" transform="translate(545 455)"/>
    <path id="Icon_awesome-smile" data-name="Icon awesome-smile" class="cls-1" d="M17.438.563A17.438,17.438,0,1,0,34.875,18,17.434,17.434,0,0,0,17.438.563Zm5.625,11.813a2.25,2.25,0,1,1-2.25,2.25A2.248,2.248,0,0,1,23.063,12.375Zm-11.25,0a2.25,2.25,0,1,1-2.25,2.25A2.248,2.248,0,0,1,11.813,12.375Zm13.7,11.967a10.5,10.5,0,0,1-16.144,0A1.126,1.126,0,0,1,11.1,22.9a8.262,8.262,0,0,0,12.684,0A1.126,1.126,0,0,1,25.509,24.342Z" transform="translate(569.563 479)"/>
  </g>
</svg>
