<svg xmlns="http://www.w3.org/2000/svg" width="57.551" height="65.773" viewBox="0 0 57.551 65.773">
  <path id="Icon_awesome-book" data-name="Icon awesome-book" d="M57.551,46.247V3.083A3.076,3.076,0,0,0,54.468,0H12.332A12.336,12.336,0,0,0,0,12.332V53.44A12.336,12.336,0,0,0,12.332,65.773H54.468a3.076,3.076,0,0,0,3.083-3.083V60.634a3.107,3.107,0,0,0-1.143-2.4,28.648,28.648,0,0,1,0-9.6A3.061,3.061,0,0,0,57.551,46.247ZM16.443,17.214a.773.773,0,0,1,.771-.771H44.448a.773.773,0,0,1,.771.771v2.569a.773.773,0,0,1-.771.771H17.214a.773.773,0,0,1-.771-.771Zm0,8.222a.773.773,0,0,1,.771-.771H44.448a.773.773,0,0,1,.771.771V28a.773.773,0,0,1-.771.771H17.214A.773.773,0,0,1,16.443,28ZM49,57.551H12.332a4.111,4.111,0,0,1,0-8.222H49A46.247,46.247,0,0,0,49,57.551Z" fill="#f2f2f2"/>
</svg>
