<svg xmlns="http://www.w3.org/2000/svg" width="84" height="84" viewBox="0 0 84 84">
  <defs>
    <style>
      .cls-1 {
        fill: #fff;
      }
    </style>
  </defs>
  <g id="Group_31" data-name="Group 31" transform="translate(-545 -455)">
    <path id="Ellipse_2" data-name="Ellipse 2" class="cls-1" d="M42,3A39.011,39.011,0,0,0,26.82,77.936,39.011,39.011,0,0,0,57.18,6.064,38.753,38.753,0,0,0,42,3m0-3A42,42,0,1,1,0,42,42,42,0,0,1,42,0Z" transform="translate(545 455)"/>
    <path id="Icon_awesome-praying-hands" data-name="Icon awesome-praying-hands" class="cls-1" d="M21.818,15.394a2.574,2.574,0,0,0-2.567,2.567v6.417a1.283,1.283,0,0,1-2.567,0v-6.14a7.689,7.689,0,0,1,1.1-3.962L24.019,3.881A2.551,2.551,0,0,0,19.746,1.1c-.016.018-.05.017-.063.039L10.277,15.245a7.673,7.673,0,0,0-1.293,4.27v6.436L1.755,28.36A2.565,2.565,0,0,0,0,30.795v7.7a2.567,2.567,0,0,0,3.213,2.484l14.373-3.74a9.413,9.413,0,0,0,6.8-9.012V17.961A2.574,2.574,0,0,0,21.818,15.394ZM49.581,28.367l-7.229-2.41V19.522a7.673,7.673,0,0,0-1.293-4.27L31.654,1.143c-.014-.022-.047-.019-.063-.039a2.551,2.551,0,0,0-4.273,2.783l6.237,10.395a7.689,7.689,0,0,1,1.1,3.962v6.14a1.283,1.283,0,0,1-2.567,0V17.968a2.567,2.567,0,0,0-5.134,0V28.235a9.411,9.411,0,0,0,6.8,9.011l14.373,3.74A2.567,2.567,0,0,0,51.336,38.5V30.8a2.566,2.566,0,0,0-1.755-2.434Z" transform="translate(561.332 476.466)"/>
  </g>
</svg>
