<svg xmlns="http://www.w3.org/2000/svg" width="39.758" height="39.782" viewBox="0 0 39.758 39.782">
  <g id="Group_54" data-name="Group 54" transform="translate(2872.302 1135.03)">
    <path id="Path_140" data-name="Path 140" d="M-2872.3-1115.158a19.886,19.886,0,0,1,20.274-19.868,19.978,19.978,0,0,1,19.481,19.623,19.97,19.97,0,0,1-20.4,20.15A19.892,19.892,0,0,1-2872.3-1115.158Zm19.876-18.442a18.466,18.466,0,0,0-18.474,18.738,18.49,18.49,0,0,0,18.465,18.19,18.493,18.493,0,0,0,18.475-18.708A18.469,18.469,0,0,0-2852.426-1133.6Z" transform="translate(0)" fill="#fafafa"/>
    <path id="Path_141" data-name="Path 141" d="M-2721.9-866.376h-6.279a1.635,1.635,0,0,1-1.773-1.259,6.417,6.417,0,0,1,3.754-8.123,7.069,7.069,0,0,1,2.185-.416c1.433-.064,2.87-.022,4.306-.018a6.414,6.414,0,0,1,6.177,5.333,6.76,6.76,0,0,1-.278,3.28,1.63,1.63,0,0,1-1.693,1.2Z" transform="translate(-130.556 -237.982)" fill="#fafafa"/>
    <path id="Path_142" data-name="Path 142" d="M-2675.12-1017.59a4.335,4.335,0,0,1,1.782-3.2,3.715,3.715,0,0,1,5.555,1.278,5.062,5.062,0,0,1-.65,5.922,3.709,3.709,0,0,1-5.48-.111A5.407,5.407,0,0,1-2675.12-1017.59Z" transform="translate(-181.306 -104.333)" fill="#fafafa"/>
    <path id="Path_143" data-name="Path 143" d="M-2523.331-867.434a8.887,8.887,0,0,0-2.488-8.581,4.031,4.031,0,0,1,1.779.175,5.638,5.638,0,0,1,4.069,6.063,6.644,6.644,0,0,1-.394,1.5,1.243,1.243,0,0,1-1.245.839C-2522.173-867.424-2522.735-867.434-2523.331-867.434Z" transform="translate(-318.586 -238.126)" fill="#fafafa"/>
    <path id="Path_144" data-name="Path 144" d="M-2792.315-876a8.9,8.9,0,0,0-2.518,8.592c-.67,0-1.338.048-2-.016a1.214,1.214,0,0,1-.976-.806,5.681,5.681,0,0,1,1.559-6.417A5.633,5.633,0,0,1-2792.315-876Z" transform="translate(-68.115 -238.175)" fill="#fafafa"/>
    <path id="Path_145" data-name="Path 145" d="M-2550.365-965.7a2.963,2.963,0,0,1,.965-2.264,2.3,2.3,0,0,1,3.411.246,3.193,3.193,0,0,1,.067,3.963,2.32,2.32,0,0,1-2.389.881,2.575,2.575,0,0,1-1.93-2A6.3,6.3,0,0,1-2550.365-965.7Z" transform="translate(-296.016 -153.018)" fill="#fafafa"/>
    <path id="Path_146" data-name="Path 146" d="M-2758.89-965.672a2.99,2.99,0,0,1-.815,2.189,2.335,2.335,0,0,1-3.585-.168,3.184,3.184,0,0,1,.036-3.962,2.347,2.347,0,0,1,3.9.308A2.823,2.823,0,0,1-2758.89-965.672Z" transform="translate(-99.615 -153.111)" fill="#fafafa"/>
  </g>
</svg>
