<svg xmlns="http://www.w3.org/2000/svg" width="84" height="84" viewBox="0 0 84 84">
  <defs>
    <style>
      .cls-1 {
        fill: #fff;
      }
    </style>
  </defs>
  <g id="Group_28" data-name="Group 28" transform="translate(-545 -455)">
    <path id="Ellipse_2" data-name="Ellipse 2" class="cls-1" d="M42,3A39.011,39.011,0,0,0,26.82,77.936,39.011,39.011,0,0,0,57.18,6.064,38.753,38.753,0,0,0,42,3m0-3A42,42,0,1,1,0,42,42,42,0,0,1,42,0Z" transform="translate(545 455)"/>
    <path id="Path_120" data-name="Path 120" d="M564.611,474.778l25.189-2.115,23.8,2.115-2.115,34.376-22.741,11.238L566.4,509.154Z"/>
    <g id="Group_30" data-name="Group 30" transform="translate(277.604 2883.152)">
      <path id="Path_55" data-name="Path 55" class="cls-1" d="M320.159-2300.462c-.355.868-.654,1.742-1.06,2.563a8.164,8.164,0,0,1-2.806,3.216.949.949,0,0,1-1.206,0,9.347,9.347,0,0,1-3.586-5.086c-.065-.2-.119-.4-.213-.726-.122.277-.2.455-.279.636a2.975,2.975,0,0,1-4.757,1.442,8.317,8.317,0,0,1-3.12-4.506c-.068-.2-.123-.4-.224-.739-.112.284-.184.46-.251.639-.789,2.112-2.56,2.606-4.314,1.185a8.148,8.148,0,0,1-2.448-3.859c-.068-.2-.125-.4-.2-.66-.193.471-.333.909-.546,1.308a1.914,1.914,0,0,1-1.757,1.15c-.526,0-.763-.2-.789-.738-.073-1.5-.18-3-.269-4.5q-.2-3.42-.4-6.84c-.014-.248,0-.5,0-.838l4.167,1.183c0-.771.027-1.481-.022-2.186-.01-.142-.289-.331-.476-.385-1.014-.294-2.039-.553-3.06-.823-.893-.236-.92-.275-.788-1.3.218.038.438.062.651.115q11.339,2.863,22.68,5.718a2.773,2.773,0,0,0,1.294,0q11.32-2.833,22.631-5.705c.2-.051.406-.075.608-.112.192.918.121,1.043-.684,1.256-1.042.275-2.082.561-3.129.818-.367.09-.538.257-.523.651.024.626.006,1.254.006,1.966l4.205-1.194c-.063,1.223-.114,2.354-.181,3.483q-.236,3.99-.484,7.98c-.008.127-.01.254-.019.38-.077,1.037-.683,1.4-1.588.854a3.8,3.8,0,0,1-1.044-1.143,5.507,5.507,0,0,1-.441-1.142c-.1.3-.183.526-.259.751a8.167,8.167,0,0,1-1.877,3.275,5.589,5.589,0,0,1-1.471,1.074,2.163,2.163,0,0,1-2.921-.861,13.782,13.782,0,0,1-.7-1.429c-.242.637-.443,1.255-.707,1.844a7.5,7.5,0,0,1-2.554,3.254c-2.024,1.385-4,.758-4.893-1.532C320.281-2300.168,320.218-2300.318,320.159-2300.462Zm-10.27-13.94c0,.815.021,1.552-.008,2.288-.016.4.164.549.52.648,1.647.46,3.288.947,4.934,1.412a1.2,1.2,0,0,0,.612.045q2.595-.725,5.176-1.5c.149-.045.362-.226.367-.35.033-.833.017-1.667.017-2.589-1.493.392-2.892.714-4.262,1.134a4.757,4.757,0,0,1-3.084.016c-1.054-.366-2.157-.594-3.24-.876C310.6-2314.256,310.278-2314.317,309.889-2314.4Zm21.725-2.716c-1.839.487-3.63.956-5.416,1.444a.49.49,0,0,0-.308.327c-.027.792-.014,1.586-.014,2.469,1.852-.538,3.632-1.045,5.4-1.585a.622.622,0,0,0,.321-.466C331.635-2315.62,331.614-2316.313,331.614-2317.118Zm-31.912,0c.042.823.058,1.556.133,2.282a.629.629,0,0,0,.386.407c1.655.5,3.318.969,4.981,1.442a1.375,1.375,0,0,0,.331,0c0-.434.005-.832,0-1.229-.022-1.382-.022-1.385-1.326-1.73C302.743-2316.331,301.277-2316.709,299.7-2317.12Zm23.937,1.9a2.182,2.182,0,0,0-.771,2.936l.779.263c.212-.47.727-.658.9-1.3.186-.672-.22-1.1-.14-1.582Zm-16.6.3a2.154,2.154,0,0,0,.769,2.883l.7-.274a2.158,2.158,0,0,0-.746-2.9Zm26.6-2.879a2.042,2.042,0,0,0-.73,2.633l.667.247a4.126,4.126,0,0,0,.619-.922,5.251,5.251,0,0,0,.113-1.177C334.354-2317.526,333.992-2317.668,333.636-2317.8Zm-35.154,2.618a2.091,2.091,0,0,0-.872-2.708,3.462,3.462,0,0,0-.507.928,2.077,2.077,0,0,0,.107,1.106,4.5,4.5,0,0,0,.642.926Z" transform="translate(-4.088 -78.735)"/>
      <path id="Path_56" data-name="Path 56" class="cls-1" d="M287.006-2395.375c1.823.277,3.513.531,5.2.789l13.722,2.1c1.149.176,2.315.274,3.443.538a12.713,12.713,0,0,0,4.958-.054c6.85-1.072,13.706-2.109,20.56-3.158.394-.06.789-.115,1.245-.181,0,.429.018.8,0,1.174-.064,1.119-.164,2.236-.208,3.356-.017.443-.176.609-.613.7-4.661.946-9.318,1.916-13.975,2.88-3,.621-6,1.251-9.006,1.857a3.218,3.218,0,0,1-1.242.042c-7.721-1.579-15.436-3.183-23.156-4.762-.464-.095-.629-.268-.65-.734C287.216-2392.306,287.107-2393.778,287.006-2395.375Z" transform="translate(0 -13.21)"/>
      <path id="Path_57" data-name="Path 57" class="cls-1" d="M331.257-2408.658c1.825-.186,3.649-.376,5.474-.559,4.039-.4,8.083-.763,12.116-1.222a25.225,25.225,0,0,1,5.241.263c4.463.413,8.92.886,13.379,1.336a8.647,8.647,0,0,1,1.765.307c-.9.142-1.791.287-2.687.425-5.2.8-10.4,1.654-15.618,2.356a13.622,13.622,0,0,1-3.7-.327c-5.27-.783-10.536-1.6-15.8-2.408a.817.817,0,0,1-.169-.065Z" transform="translate(-38.627)"/>
      <path id="Path_58" data-name="Path 58" class="cls-1" d="M452.523-2085.97c1.1.511,2.078.944,3.034,1.424a1.124,1.124,0,0,0,1.123-.006c.937-.472,1.9-.9,2.984-1.4,0,.775.012,1.418-.011,2.059,0,.119-.132.246-.228.344a.933.933,0,0,1-.277.15c-1.031.482-2.064,1.344-3.092,1.339s-2.052-.888-3.089-1.359a.673.673,0,0,1-.451-.733C452.541-2084.7,452.523-2085.25,452.523-2085.97Z" transform="translate(-144.492 -283.325)"/>
      <path id="Path_59" data-name="Path 59" class="cls-1" d="M450.6-2128.058c.232.182.475.352.694.549.782.7,1.55,1.425,2.334,2.127a.89.89,0,0,0,1.307-.018c.769-.689,1.521-1.4,2.286-2.087.219-.2.46-.373.69-.558l.175.094c0,.665.019,1.33-.016,1.993a.61.61,0,0,1-.335.393c-1.056.487-2.119.96-3.193,1.406a.94.94,0,0,1-.651-.022c-1.014-.423-2.025-.857-3.012-1.34a.937.937,0,0,1-.439-.641,16.647,16.647,0,0,1-.021-1.767Z" transform="translate(-142.648 -246.581)"/>
      <path id="Path_60" data-name="Path 60" class="cls-1" d="M466.586-2100.893a2.7,2.7,0,0,0,3.583.019c0,.884.012,1.552-.011,2.218,0,.115-.134.25-.241.33-.132.1-.322.122-.45.224-.962.768-1.809.229-2.655-.234a.483.483,0,0,1-.216-.343C466.575-2099.344,466.586-2100.01,466.586-2100.893Z" transform="translate(-156.773 -270.297)"/>
      <path id="Path_61" data-name="Path 61" class="cls-1" d="M437.075-2113.528c1.195.535,2.253,1,3.3,1.489a.462.462,0,0,1,.232.328c.022.67.011,1.342.011,2.155-1.193-.556-2.277-1.056-3.353-1.573a.412.412,0,0,1-.183-.306C437.066-2112.083,437.075-2112.731,437.075-2113.528Z" transform="translate(-131.01 -259.266)"/>
      <path id="Path_62" data-name="Path 62" class="cls-1" d="M500.081-2113.338c0,.79.006,1.451-.007,2.112a.342.342,0,0,1-.162.25c-1.073.515-2.152,1.018-3.347,1.58,0-.813-.008-1.48.008-2.147a.4.4,0,0,1,.183-.3C497.82-2112.33,498.89-2112.8,500.081-2113.338Z" transform="translate(-182.947 -259.432)"/>
      <path id="Path_63" data-name="Path 63" class="cls-1" d="M442.856-2067.946c-1.113-.566-2.162-1.092-3.2-1.638a.487.487,0,0,1-.2-.359c-.02-.607-.009-1.216-.009-1.951.476.217.866.391,1.253.571.267.125.529.26.794.389C443.116-2070.144,443.212-2069.946,442.856-2067.946Z" transform="translate(-133.083 -295.612)"/>
      <path id="Path_64" data-name="Path 64" class="cls-1" d="M498.069-2072.077c0,.765.011,1.355-.009,1.944a.49.49,0,0,1-.184.366c-1.039.552-2.09,1.083-3.284,1.7,0-.788-.008-1.431.008-2.072a.415.415,0,0,1,.181-.3C495.832-2070.98,496.89-2071.5,498.069-2072.077Z" transform="translate(-181.224 -295.454)"/>
      <path id="Path_65" data-name="Path 65" class="cls-1" d="M424.438-2099.194c1.106.519,2.1.976,3.08,1.455a.544.544,0,0,1,.282.365c.029.643.013,1.287.013,2.085-1.159-.571-2.191-1.075-3.216-1.592a.344.344,0,0,1-.152-.253C424.432-2097.777,424.438-2098.421,424.438-2099.194Z" transform="translate(-119.979 -271.78)"/>
      <path id="Path_66" data-name="Path 66" class="cls-1" d="M513.882-2099.087c0,.743.008,1.351-.007,1.96a.424.424,0,0,1-.151.321c-1.026.524-2.061,1.03-3.21,1.6,0-.789-.016-1.419.013-2.047a.542.542,0,0,1,.272-.375C511.783-2098.112,512.778-2098.569,513.882-2099.087Z" transform="translate(-195.122 -271.874)"/>
      <path id="Path_67" data-name="Path 67" class="cls-1" d="M408.942-2126.041c1.1.49,2.082.92,3.054,1.376a.533.533,0,0,1,.252.385c.026.629.012,1.26.012,2.041-1.107-.518-2.114-.981-3.111-1.467a.487.487,0,0,1-.2-.364C408.931-2124.679,408.942-2125.288,408.942-2126.041Z" transform="translate(-106.449 -248.342)"/>
      <path id="Path_68" data-name="Path 68" class="cls-1" d="M526.515-2122.136c0-.782-.008-1.429.009-2.075a.4.4,0,0,1,.19-.292c.987-.46,1.983-.9,3.081-1.4,0,.76.006,1.4-.007,2.04a.346.346,0,0,1-.156.256C528.632-2123.125,527.627-2122.657,526.515-2122.136Z" transform="translate(-209.093 -248.464)"/>
      <path id="Path_69" data-name="Path 69" class="cls-1" d="M415.222-2081.775c-1.123-.577-2.127-1.087-3.122-1.614a.421.421,0,0,1-.176-.311c-.017-.6-.008-1.209-.008-1.948a18.861,18.861,0,0,0,2.1,1,1.559,1.559,0,0,1,1.211,1.979A5.845,5.845,0,0,0,415.222-2081.775Z" transform="translate(-109.046 -283.607)"/>
      <path id="Path_70" data-name="Path 70" class="cls-1" d="M526.987-2084.639a.894.894,0,0,1,.039.125c.092,1.839.093,1.84-1.542,2.672-.54.275-1.083.545-1.749.879,0-.755-.009-1.394.01-2.033a.419.419,0,0,1,.214-.283c.943-.473,1.893-.932,2.843-1.388C526.847-2084.688,526.921-2084.65,526.987-2084.639Z" transform="translate(-206.665 -284.457)"/>
      <path id="Path_71" data-name="Path 71" class="cls-1" d="M468.956-2058.271a1.967,1.967,0,0,0,2.848-.092c0,.894.213,1.67-.064,2.182a2.014,2.014,0,0,1-1.582.845c-1.026-.058-1.372-.647-1.367-1.684,0-.37,0-.74,0-1.11Z" transform="translate(-158.701 -307.426)"/>
      <path id="Path_72" data-name="Path 72" class="cls-1" d="M396.617-2111.8c1.013.477,1.969.917,2.911,1.384a.548.548,0,0,1,.238.4c.026.587.011,1.176.011,1.878-.326-.13-.59-.223-.844-.338-.347-.157-.686-.329-1.029-.5C396.469-2109.664,396.3-2110.007,396.617-2111.8Z" transform="translate(-95.575 -260.775)"/>
      <path id="Path_73" data-name="Path 73" class="cls-1" d="M539.3-2108.265c0-.767-.013-1.39.012-2.012a.48.48,0,0,1,.247-.325c.925-.45,1.86-.882,2.958-1.4-.036.784-.059,1.441-.1,2.1-.005.077-.121.172-.208.215C541.283-2109.229,540.356-2108.78,539.3-2108.265Z" transform="translate(-220.254 -260.602)"/>
      <path id="Path_74" data-name="Path 74" class="cls-1" d="M382.613-2137.763c1.035.467,1.988.893,2.936,1.333a.34.34,0,0,1,.151.255c.013.644.007,1.289.007,2.04-.994-.463-1.926-.887-2.844-1.339a.544.544,0,0,1-.239-.4C382.6-2136.457,382.613-2137.044,382.613-2137.763Z" transform="translate(-83.462 -238.109)"/>
      <path id="Path_75" data-name="Path 75" class="cls-1" d="M554.5-2134.031c0-.737-.011-1.347.01-1.956a.472.472,0,0,1,.207-.351c.911-.43,1.834-.837,2.858-1.3,0,.724.017,1.325-.013,1.924a.549.549,0,0,1-.282.372C556.4-2134.905,555.5-2134.494,554.5-2134.031Z" transform="translate(-233.527 -238.22)"/>
      <path id="Path_76" data-name="Path 76" class="cls-1" d="M424.514-2130.658c-1.2-.538-2.271-.966-3.277-1.509-.206-.112-.177-.658-.252-.988.72-.168,1.323-.324,1.933-.447a1.485,1.485,0,0,1,1.6,1.307C424.514-2131.814,424.514-2131.333,424.514-2130.658Z" transform="translate(-116.965 -241.725)"/>
      <path id="Path_77" data-name="Path 77" class="cls-1" d="M512.894-2130.6c0-.682-.026-1.349.011-2.013.018-.323,1.209-.842,1.613-.747l1.737.408c.2.875.176.925-.649,1.287s-1.626.711-2.441,1.062A1,1,0,0,1,512.894-2130.6Z" transform="translate(-197.195 -241.939)"/>
      <path id="Path_78" data-name="Path 78" class="cls-1" d="M385.89-2098.508c1.02.506,1.959.964,2.888,1.441a.416.416,0,0,1,.167.311c.016.6.008,1.208.008,1.94-1-.515-1.931-.986-2.852-1.472a.421.421,0,0,1-.2-.293C385.88-2097.18,385.89-2097.781,385.89-2098.508Z" transform="translate(-86.325 -272.379)"/>
      <path id="Path_79" data-name="Path 79" class="cls-1" d="M371.733-2123.828c.992.466,1.9.888,2.809,1.329a.413.413,0,0,1,.182.305c.017.6.008,1.207.008,1.947-.994-.486-1.915-.93-2.827-1.393a.426.426,0,0,1-.164-.32C371.725-2122.542,371.733-2123.127,371.733-2123.828Z" transform="translate(-73.966 -250.274)"/>
      <path id="Path_80" data-name="Path 80" class="cls-1" d="M554.63-2098.388c0,.7.017,1.263-.012,1.828a.564.564,0,0,1-.255.4c-.889.478-1.792.93-2.782,1.436,0-.719-.006-1.342.007-1.963a.348.348,0,0,1,.154-.255C552.675-2097.421,553.615-2097.884,554.63-2098.388Z" transform="translate(-230.976 -272.484)"/>
      <path id="Path_81" data-name="Path 81" class="cls-1" d="M371.46-2157.406a14.886,14.886,0,0,1-2.711-1.281c-.311-.226-.323-1.088-.209-1.6.086-.386.63-.389,1.033-.17.147.08.307.138.461.2C371.55-2159.616,371.769-2159.2,371.46-2157.406Z" transform="translate(-71.123 -218.167)"/>
      <path id="Path_82" data-name="Path 82" class="cls-1" d="M569.338-2123.755c0,.7.016,1.245-.011,1.79a.562.562,0,0,1-.227.412c-.874.454-1.763.878-2.725,1.35,0-.737-.01-1.357.01-1.977a.414.414,0,0,1,.217-.28C567.472-2122.883,568.349-2123.29,569.338-2123.755Z" transform="translate(-243.892 -250.338)"/>
      <path id="Path_83" data-name="Path 83" class="cls-1" d="M568.826-2157.229a12.207,12.207,0,0,1,.115-1.792,1.242,1.242,0,0,1,.58-.7,9.859,9.859,0,0,1,1.51-.647c.507-.185.861.083.876.621.031,1.15.031,1.152-1.031,1.622C570.245-2157.844,569.612-2157.571,568.826-2157.229Z" transform="translate(-246.033 -218.326)"/>
      <path id="Path_84" data-name="Path 84" class="cls-1" d="M360.755-2145.328c-.971-.457-1.862-.866-2.739-1.3a.5.5,0,0,1-.177-.377c-.019-.564-.008-1.128-.008-1.818.958.432,1.854.831,2.741,1.248a.406.406,0,0,1,.176.3C360.764-2146.668,360.755-2146.063,360.755-2145.328Z" transform="translate(-61.828 -228.452)"/>
      <path id="Path_85" data-name="Path 85" class="cls-1" d="M583.553-2148.638c0,.691.012,1.257-.009,1.822a.486.486,0,0,1-.2.362c-.862.426-1.737.826-2.689,1.272,0-.716-.012-1.3.01-1.889a.476.476,0,0,1,.208-.353C581.741-2147.835,582.622-2148.221,583.553-2148.638Z" transform="translate(-256.356 -228.615)"/>
      <path id="Path_86" data-name="Path 86" class="cls-1" d="M360.922-2110.6c.972.478,1.839.9,2.694,1.337a.481.481,0,0,1,.2.356c.021.565.009,1.131.009,1.842-.539-.27-1.033-.512-1.522-.764-1.351-.7-1.352-.7-1.413-2.2C360.882-2110.173,360.9-2110.317,360.922-2110.6Z" transform="translate(-64.499 -261.822)"/>
      <path id="Path_87" data-name="Path 87" class="cls-1" d="M580.549-2110.618c-.034.73-.052,1.3-.1,1.861a.432.432,0,0,1-.182.306c-.851.452-1.712.886-2.639,1.361,0-.712-.01-1.316.01-1.918a.419.419,0,0,1,.214-.281C578.7-2109.718,579.552-2110.129,580.549-2110.618Z" transform="translate(-253.719 -261.807)"/>
      <path id="Path_88" data-name="Path 88" class="cls-1" d="M347.715-2135.076c.93.437,1.764.82,2.588,1.227a.474.474,0,0,1,.22.342c.023.584.01,1.169.01,1.872-.9-.44-1.757-.852-2.6-1.294a.569.569,0,0,1-.207-.422C347.7-2133.874,347.715-2134.4,347.715-2135.076Z" transform="translate(-52.996 -240.455)"/>
      <path id="Path_89" data-name="Path 89" class="cls-1" d="M591.594-2131.5c0-.687-.012-1.254.009-1.821a.481.481,0,0,1,.2-.357c.826-.411,1.664-.8,2.582-1.229,0,.669.018,1.228-.013,1.785a.559.559,0,0,1-.268.386C593.3-2132.318,592.486-2131.931,591.594-2131.5Z" transform="translate(-265.907 -240.605)"/>
      <path id="Path_90" data-name="Path 90" class="cls-1" d="M337.427-2155.722c-.977-.459-1.793-.833-2.6-1.231a.474.474,0,0,1-.216-.344c-.023-.562-.01-1.125-.01-1.807.878.4,1.712.765,2.54,1.149a.348.348,0,0,1,.162.247C337.353-2157.106,337.382-2156.5,337.427-2155.722Z" transform="translate(-41.55 -219.477)"/>
      <path id="Path_91" data-name="Path 91" class="cls-1" d="M604.838-2155.622c.042-.764.069-1.385.119-2a.359.359,0,0,1,.2-.224c.8-.367,1.6-.722,2.47-1.109,0,.674.01,1.253-.009,1.833a.411.411,0,0,1-.2.291C606.606-2156.441,605.79-2156.066,604.838-2155.622Z" transform="translate(-277.472 -219.605)"/>
      <path id="Path_92" data-name="Path 92" class="cls-1" d="M340.252-2118.85c-.909-.466-1.712-.865-2.5-1.294a.591.591,0,0,1-.217-.41c-.058-.518-.081-1.041-.131-1.767,1,.508,1.866.936,2.714,1.4.1.054.121.3.126.463C340.262-2119.979,340.252-2119.5,340.252-2118.85Z" transform="translate(-44 -251.59)"/>
      <path id="Path_93" data-name="Path 93" class="cls-1" d="M604.725-2122.123c-.053.743-.088,1.323-.143,1.9a.367.367,0,0,1-.179.238c-.794.419-1.6.826-2.479,1.281,0-.688-.01-1.247.008-1.805a.421.421,0,0,1,.182-.307C602.931-2121.239,603.757-2121.642,604.725-2122.123Z" transform="translate(-274.926 -251.762)"/>
      <path id="Path_94" data-name="Path 94" class="cls-1" d="M324.489-2145.989c.942.445,1.724.8,2.495,1.188a.49.49,0,0,1,.226.338c.055.563.076,1.13.12,1.877-.935-.463-1.761-.854-2.563-1.289-.113-.061-.139-.33-.158-.508C324.559-2144.86,324.535-2145.341,324.489-2145.989Z" transform="translate(-32.723 -230.927)"/>
      <path id="Path_95" data-name="Path 95" class="cls-1" d="M301.486-2156.77c.964.459,1.8.847,2.622,1.262a.5.5,0,0,1,.19.371c.021.523.009,1.048.009,1.7-.886-.435-1.72-.82-2.521-1.263-.141-.078-.179-.4-.2-.619C301.531-2155.747,301.522-2156.182,301.486-2156.77Z" transform="translate(-12.641 -221.515)"/>
      <path id="Path_96" data-name="Path 96" class="cls-1" d="M640.825-2156.7c-.055.712-.083,1.236-.145,1.755a.507.507,0,0,1-.225.343c-.782.4-1.576.787-2.43,1.208,0-.656-.01-1.213.009-1.769a.414.414,0,0,1,.194-.3C639.036-2155.855,639.853-2156.235,640.825-2156.7Z" transform="translate(-306.442 -221.581)"/>
      <path id="Path_97" data-name="Path 97" class="cls-1" d="M617.694-2145.848c-.05.734-.075,1.278-.133,1.819a.5.5,0,0,1-.228.34c-.763.39-1.538.758-2.437,1.195.036-.72.06-1.316.1-1.909a.353.353,0,0,1,.17-.245C615.959-2145.034,616.754-2145.4,617.694-2145.848Z" transform="translate(-286.253 -231.05)"/>
      <path id="Path_98" data-name="Path 98" class="cls-1" d="M312.644-2168.854c.8.354,1.549.675,2.284,1.025a.54.54,0,0,1,.271.373c.03.559.013,1.121.013,1.8-.831-.389-1.6-.745-2.367-1.119a.41.41,0,0,1-.192-.3C312.635-2167.63,312.644-2168.193,312.644-2168.854Z" transform="translate(-22.38 -210.966)"/>
      <path id="Path_99" data-name="Path 99" class="cls-1" d="M315.595-2132.966c.9.442,1.668.81,2.425,1.21a.566.566,0,0,1,.232.411c.028.521.011,1.044.011,1.69-.835-.428-1.62-.812-2.381-1.24-.117-.066-.154-.326-.173-.5C315.658-2131.867,315.638-2132.343,315.595-2132.966Z" transform="translate(-24.959 -242.297)"/>
      <path id="Path_100" data-name="Path 100" class="cls-1" d="M627.7-2132.823c-.048.715-.074,1.259-.129,1.8a.438.438,0,0,1-.205.291c-.739.394-1.487.771-2.3,1.187,0-.649-.013-1.187.01-1.725a.491.491,0,0,1,.214-.355C626.039-2132.012,626.8-2132.375,627.7-2132.823Z" transform="translate(-295.132 -242.422)"/>
      <path id="Path_101" data-name="Path 101" class="cls-1" d="M631.326-2168.756c0,.644.018,1.189-.013,1.731a.551.551,0,0,1-.275.376c-.714.356-1.443.683-2.25,1.059,0-.67-.014-1.265.013-1.857,0-.106.162-.245.281-.3C629.8-2168.086,630.536-2168.4,631.326-2168.756Z" transform="translate(-298.378 -211.051)"/>
      <path id="Path_102" data-name="Path 102" class="cls-1" d="M321.635-2182.019c1.413.21,2.835,1.829,2.631,3.126-.823-.364-1.628-.714-2.425-1.082a.405.405,0,0,1-.2-.293C321.625-2180.851,321.635-2181.436,321.635-2182.019Z" transform="translate(-30.229 -199.473)"/>
      <path id="Path_103" data-name="Path 103" class="cls-1" d="M621.23-2182.1c0,.582.022,1.145-.015,1.7a.617.617,0,0,1-.325.406c-.72.344-1.456.655-2.356,1.052.028-.44-.082-.893.092-1.072C619.393-2180.8,619.89-2181.946,621.23-2182.1Z" transform="translate(-289.421 -199.405)"/>
      <path id="Path_104" data-name="Path 104" class="cls-1" d="M397.012-2144.387c-1.026-.457-2-.855-2.934-1.336-.178-.091-.222-.5-.268-.772a6.524,6.524,0,0,1-.009-.948,8.827,8.827,0,0,0,.842.739,9.27,9.27,0,0,0,1.786,1.061C397.053-2145.413,397.2-2145.1,397.012-2144.387Z" transform="translate(-93.222 -229.657)"/>
      <path id="Path_105" data-name="Path 105" class="cls-1" d="M541.877-2143.343c-.159-.6-.156-.982.5-1.177a5.357,5.357,0,0,0,1.388-.731,14.527,14.527,0,0,0,1.171-.958c.34.99.152,1.463-.727,1.851C543.447-2144.021,542.68-2143.692,541.877-2143.343Z" transform="translate(-222.43 -230.735)"/>
      <path id="Path_106" data-name="Path 106" class="cls-1" d="M302.45-2181.565c-.787-.35-1.548-.649-2.263-1.036-.182-.1-.213-.475-.268-.611.8-.162,1.49-.314,2.19-.43.1-.016.321.151.326.241C302.464-2182.819,302.45-2182.236,302.45-2181.565Z" transform="translate(-11.273 -198.056)"/>
      <path id="Path_107" data-name="Path 107" class="cls-1" d="M644.225-2182.941c.077.328-.1.6-.552.772-.641.243-1.258.546-1.934.845,0-.657-.016-1.235.018-1.81,0-.081.265-.227.385-.208C642.8-2183.24,643.455-2183.094,644.225-2182.941Z" transform="translate(-309.684 -198.316)"/>
      <path id="Path_108" data-name="Path 108" class="cls-1" d="M304.051-2135.425c-1.5-.584-1.65-.836-1.469-2.467C303.875-2137.817,304.3-2137.125,304.051-2135.425Z" transform="translate(-13.544 -237.997)"/>
      <path id="Path_109" data-name="Path 109" class="cls-1" d="M344.31-2162.788l2.83.817v1.236c-.926-.42-1.825-.788-2.673-1.25C344.308-2162.072,344.353-2162.535,344.31-2162.788Z" transform="translate(-50.027 -216.262)"/>
      <path id="Path_110" data-name="Path 110" class="cls-1" d="M647.766-2138.2c.181,1.616-.108,2.1-1.43,2.435C646.018-2137.3,646.312-2137.812,647.766-2138.2Z" transform="translate(-313.599 -237.726)"/>
      <path id="Path_111" data-name="Path 111" class="cls-1" d="M597.351-2162.623a.762.762,0,0,1-.551,1.056c-.722.267-1.417.606-2.214.952-.019-.3-.025-.5-.045-.694-.048-.478.089-.662.641-.72A13.227,13.227,0,0,0,597.351-2162.623Z" transform="translate(-268.475 -216.406)"/>
      <path id="Path_112" data-name="Path 112" class="cls-1" d="M300.654-2173.145c1.089.164,1.217.3,1.256,1.31.012.315.037.629.055.941C300.936-2170.646,300.372-2171.626,300.654-2173.145Z" transform="translate(-11.851 -207.22)"/>
      <path id="Path_113" data-name="Path 113" class="cls-1" d="M650.519-2170.778c.026-2.146-.222-1.9,1.2-2.354C652.113-2171.852,651.751-2171.114,650.519-2170.778Z" transform="translate(-317.35 -207.231)"/>
      <path id="Path_114" data-name="Path 114" class="cls-1" d="M440.324-2140.954l.71-.881.748,1.323-.088.117Z" transform="translate(-133.849 -234.553)"/>
      <path id="Path_115" data-name="Path 115" class="cls-1" d="M510.593-2141.338l.811.765-1.4.594-.111-.1Z" transform="translate(-194.587 -234.988)"/>
      <path id="Path_116" data-name="Path 116" class="cls-1" d="M320.811-2190.231l-1.258-.517.574-.764Z" transform="translate(-28.414 -191.185)"/>
      <path id="Path_117" data-name="Path 117" class="cls-1" d="M633.077-2190.076l.539-1.005.569.67-.977.455Z" transform="translate(-302.125 -191.561)"/>
      <path id="Path_118" data-name="Path 118" class="cls-1" d="M375.122-2167.97l.789-.84.129,1.193Z" transform="translate(-76.927 -211.003)"/>
      <path id="Path_119" data-name="Path 119" class="cls-1" d="M579.093-2167.3l.163-1.161.728.772Z" transform="translate(-254.996 -211.305)"/>
    </g>
  </g>
</svg>
