<svg xmlns="http://www.w3.org/2000/svg" width="39.791" height="39.782" viewBox="0 0 39.791 39.782">
  <path id="Icon_awesome-instagram" data-name="Icon awesome-instagram" d="M19.895,11.929a10.2,10.2,0,1,0,10.2,10.2A10.184,10.184,0,0,0,19.895,11.929Zm0,16.831a6.631,6.631,0,1,1,6.631-6.631,6.643,6.643,0,0,1-6.631,6.631Zm13-17.248a2.379,2.379,0,1,1-2.379-2.379A2.374,2.374,0,0,1,32.891,11.512Zm6.755,2.415c-.151-3.187-.879-6.01-3.213-8.336S31.284,2.537,28.1,2.378c-3.285-.186-13.129-.186-16.414,0-3.178.151-6,.879-8.336,3.2S.294,10.731.135,13.918c-.186,3.285-.186,13.129,0,16.414.151,3.187.879,6.01,3.213,8.336S8.5,41.721,11.684,41.88c3.285.186,13.129.186,16.414,0,3.187-.151,6.01-.879,8.336-3.213s3.054-5.149,3.213-8.336c.186-3.285.186-13.12,0-16.4ZM35.4,33.856a6.713,6.713,0,0,1-3.782,3.782c-2.619,1.039-8.833.8-11.727.8s-9.117.231-11.727-.8a6.713,6.713,0,0,1-3.782-3.782c-1.039-2.619-.8-8.833-.8-11.727s-.231-9.117.8-11.727A6.713,6.713,0,0,1,8.168,6.621c2.619-1.039,8.833-.8,11.727-.8s9.117-.231,11.727.8A6.713,6.713,0,0,1,35.4,10.4c1.039,2.619.8,8.833.8,11.727S36.442,31.246,35.4,33.856Z" transform="translate(0.005 -2.238)" fill="#f1f1f1"/>
</svg>
