<svg xmlns="http://www.w3.org/2000/svg" width="84" height="84" viewBox="0 0 84 84">
  <defs>
    <style>
      .cls-1 {
        fill: #fff;
      }
    </style>
  </defs>
  <g id="Group_25" data-name="Group 25" transform="translate(-545 -455)">
    <path id="Ellipse_2" data-name="Ellipse 2" class="cls-1" d="M42,3A39.011,39.011,0,0,0,26.82,77.936,39.011,39.011,0,0,0,57.18,6.064,38.753,38.753,0,0,0,42,3m0-3A42,42,0,1,1,0,42,42,42,0,0,1,42,0Z" transform="translate(545 455)"/>
    <path id="Icon_awesome-hand-holding-usd" data-name="Icon awesome-hand-holding-usd" class="cls-1" d="M22.493,12.6l4.366,1.249a.735.735,0,0,1-.2,1.441H23.794a2.246,2.246,0,0,1-.9-.192,1.082,1.082,0,0,0-1.231.175L20.136,16.8a1.047,1.047,0,0,0,.131,1.607,6.38,6.38,0,0,0,2.777,1v1.546a1.4,1.4,0,0,0,1.4,1.4h1.4a1.4,1.4,0,0,0,1.4-1.4V19.42a4.913,4.913,0,0,0,4.3-5.5,5.123,5.123,0,0,0-3.746-4.165L23.427,8.5a.735.735,0,0,1,.2-1.441h2.864a2.246,2.246,0,0,1,.9.192,1.083,1.083,0,0,0,1.231-.175l1.528-1.528a1.047,1.047,0,0,0-.131-1.607,6.38,6.38,0,0,0-2.777-1V1.4a1.4,1.4,0,0,0-1.4-1.4h-1.4a1.4,1.4,0,0,0-1.4,1.4V2.934a4.913,4.913,0,0,0-4.3,5.5A5.123,5.123,0,0,0,22.493,12.6ZM46.619,28.649a2.622,2.622,0,0,0-3.519,0L35.486,35.1a5.078,5.078,0,0,1-3.3,1.222H22.432a1.4,1.4,0,0,1,0-2.794h6.453a2.8,2.8,0,0,0,.14-5.588H15.831a9.336,9.336,0,0,0-6.1,2.3L5.894,33.53H1.319A1.364,1.364,0,0,0,0,34.927V43.31a1.364,1.364,0,0,0,1.319,1.4H30.736a5.113,5.113,0,0,0,3.3-1.222L46.506,32.919a2.9,2.9,0,0,0,.114-4.27Z" transform="translate(563 472)"/>
  </g>
</svg>
