<?xml version="1.0" encoding="utf-8"?>
<!-- Generator: Adobe Illustrator 23.0.5, SVG Export Plug-In . SVG Version: 6.00 Build 0)  -->
<svg version="1.1" id="Layer_1" xmlns="http://www.w3.org/2000/svg" xmlns:xlink="http://www.w3.org/1999/xlink" x="0px" y="0px"
	 viewBox="0 0 102 102" style="enable-background:new 0 0 102 102;" xml:space="preserve">
<style type="text/css">
	.st0{fill:none;}
	.st1{fill:none;stroke:#FFFFFF;stroke-width:3;}
	.st2{fill:#FFFFFF;}
</style>
<g>
	<g transform="matrix(1, 0, 0, 1, 539, 450)">
		<g id="Ellipse_2-3" transform="translate(6 5)">
			<circle class="st0" cx="-245.2" cy="-408.5" r="42"/>
			<circle class="st1" cx="-245.2" cy="-408.5" r="40.5"/>
		</g>
	</g>
	<g id="Ellipse_2-5" transform="translate(545 455)">
		<circle class="st0" cx="-245.2" cy="-408.5" r="42"/>
		<circle class="st1" cx="-245.2" cy="-408.5" r="40.5"/>
	</g>
</g>
<path id="Path_120" d="M277.4,24.3l25.2-2.1l23.8,2.1l-2.1,34.4l-22.7,11.2l-22.3-11.2L277.4,24.3z"/>
<g id="Group_30" transform="translate(277.604 2883.152)">
	<path id="Path_55" class="st2" d="M28.9-2829.7c-0.4,0.9-0.7,1.7-1.1,2.6c-0.6,1.3-1.6,2.4-2.8,3.2c-0.4,0.3-0.9,0.3-1.2,0
		c-1.7-1.2-3-3-3.6-5.1c-0.1-0.2-0.1-0.4-0.2-0.7c-0.1,0.3-0.2,0.5-0.3,0.6c-0.5,1.6-2.1,2.5-3.7,2c-0.4-0.1-0.7-0.3-1.1-0.6
		c-1.5-1.1-2.6-2.7-3.1-4.5c-0.1-0.2-0.1-0.4-0.2-0.7c-0.1,0.3-0.2,0.5-0.3,0.6c-0.8,2.1-2.6,2.6-4.3,1.2c-1.2-1-2-2.4-2.4-3.9
		c-0.1-0.2-0.1-0.4-0.2-0.7c-0.2,0.5-0.3,0.9-0.5,1.3c-0.3,0.7-1,1.2-1.8,1.1c-0.5,0-0.8-0.2-0.8-0.7c-0.1-1.5-0.2-3-0.3-4.5
		c-0.1-2.3-0.3-4.6-0.4-6.8c0-0.2,0-0.5,0-0.8l4.2,1.2c0-0.8,0-1.5,0-2.2c0-0.1-0.3-0.3-0.5-0.4c-1-0.3-2-0.6-3.1-0.8
		c-0.9-0.2-0.9-0.3-0.8-1.3c0.2,0,0.4,0.1,0.7,0.1c7.6,1.9,15.1,3.8,22.7,5.7c0.4,0.1,0.9,0.1,1.3,0c7.5-1.9,15.1-3.8,22.6-5.7
		c0.2-0.1,0.4-0.1,0.6-0.1c0.2,0.9,0.1,1-0.7,1.3c-1,0.3-2.1,0.6-3.1,0.8c-0.4,0.1-0.5,0.3-0.5,0.7c0,0.6,0,1.3,0,2l4.2-1.2
		c-0.1,1.2-0.1,2.4-0.2,3.5c-0.2,2.7-0.3,5.3-0.5,8c0,0.1,0,0.3,0,0.4c-0.1,1-0.7,1.4-1.6,0.9c-0.4-0.3-0.8-0.7-1-1.1
		c-0.2-0.4-0.3-0.7-0.4-1.1c-0.1,0.3-0.2,0.5-0.3,0.8c-0.4,1.2-1,2.3-1.9,3.3c-0.4,0.4-0.9,0.8-1.5,1.1c-1,0.6-2.3,0.2-2.9-0.9
		c-0.3-0.5-0.5-0.9-0.7-1.4c-0.2,0.6-0.4,1.3-0.7,1.8c-0.5,1.3-1.4,2.4-2.6,3.3c-2,1.4-4,0.8-4.9-1.5
		C29-2829.4,29-2829.5,28.9-2829.7z M18.6-2843.6c0,0.8,0,1.6,0,2.3c0,0.4,0.2,0.5,0.5,0.6c1.6,0.5,3.3,0.9,4.9,1.4
		c0.2,0.1,0.4,0.1,0.6,0c1.7-0.5,3.5-1,5.2-1.5c0.1,0,0.4-0.2,0.4-0.4c0-0.8,0-1.7,0-2.6c-1.5,0.4-2.9,0.7-4.3,1.1
		c-1,0.3-2.1,0.4-3.1,0c-1.1-0.4-2.2-0.6-3.2-0.9C19.3-2843.5,19-2843.5,18.6-2843.6L18.6-2843.6z M40.4-2846.3
		c-1.8,0.5-3.6,1-5.4,1.4c-0.1,0.1-0.3,0.2-0.3,0.3c0,0.8,0,1.6,0,2.5c1.9-0.5,3.6-1,5.4-1.6c0.2-0.1,0.3-0.3,0.3-0.5
		C40.4-2844.8,40.4-2845.5,40.4-2846.3z M8.5-2846.3c0,0.8,0.1,1.6,0.1,2.3c0.1,0.2,0.2,0.3,0.4,0.4c1.7,0.5,3.3,1,5,1.4
		c0.1,0,0.2,0,0.3,0c0-0.4,0-0.8,0-1.2c0-1.4,0-1.4-1.3-1.7C11.5-2845.5,10-2845.9,8.5-2846.3L8.5-2846.3z M32.4-2844.4
		c-1,0.6-1.3,1.9-0.8,2.9l0.8,0.3c0.2-0.5,0.7-0.7,0.9-1.3c0.2-0.7-0.2-1.1-0.1-1.6L32.4-2844.4z M15.8-2844.1
		c-0.6,1-0.2,2.3,0.8,2.9l0.7-0.3c0.6-1,0.2-2.3-0.7-2.9L15.8-2844.1z M42.4-2847c-0.9,0.6-1.2,1.7-0.7,2.6l0.7,0.2
		c0.2-0.3,0.5-0.6,0.6-0.9c0.1-0.4,0.1-0.8,0.1-1.2C43.1-2846.7,42.7-2846.9,42.4-2847L42.4-2847z M7.2-2844.4
		c0.5-1,0.1-2.2-0.9-2.7c-0.2,0.3-0.4,0.6-0.5,0.9c-0.1,0.4,0,0.8,0.1,1.1c0.2,0.3,0.4,0.6,0.6,0.9L7.2-2844.4z"/>
	<path id="Path_56" class="st2" d="M-0.2-2859.1c1.8,0.3,3.5,0.5,5.2,0.8l13.7,2.1c1.1,0.2,2.3,0.3,3.4,0.5c1.6,0.3,3.3,0.3,5-0.1
		c6.9-1.1,13.7-2.1,20.6-3.2c0.4-0.1,0.8-0.1,1.2-0.2c0,0.4,0,0.8,0,1.2c-0.1,1.1-0.2,2.2-0.2,3.4c0,0.4-0.2,0.6-0.6,0.7
		c-4.7,0.9-9.3,1.9-14,2.9c-3,0.6-6,1.3-9,1.9c-0.4,0.1-0.8,0.1-1.2,0c-7.7-1.6-15.4-3.2-23.2-4.8c-0.5-0.1-0.6-0.3-0.6-0.7
		C0.1-2856-0.1-2857.5-0.2-2859.1z"/>
	<path id="Path_57" class="st2" d="M5.5-2859.1c1.8-0.2,3.6-0.4,5.5-0.6c4-0.4,8.1-0.8,12.1-1.2c1.8-0.1,3.5,0,5.2,0.3
		c4.5,0.4,8.9,0.9,13.4,1.3c0.6,0,1.2,0.1,1.8,0.3c-0.9,0.1-1.8,0.3-2.7,0.4c-5.2,0.8-10.4,1.7-15.6,2.4c-1.2,0.1-2.5,0-3.7-0.3
		c-5.3-0.8-10.5-1.6-15.8-2.4c-0.1,0-0.1,0-0.2-0.1L5.5-2859.1z"/>
	<path id="Path_58" class="st2" d="M20.9-2819.8c1.1,0.5,2.1,0.9,3,1.4c0.3,0.2,0.8,0.2,1.1,0c0.9-0.5,1.9-0.9,3-1.4
		c0,0.8,0,1.4,0,2.1c0,0.1-0.1,0.2-0.2,0.3c-0.1,0.1-0.2,0.1-0.3,0.1c-1,0.5-2.1,1.3-3.1,1.3s-2.1-0.9-3.1-1.4
		c-0.3-0.1-0.5-0.4-0.5-0.7C20.9-2818.5,20.9-2819,20.9-2819.8z"/>
	<path id="Path_59" class="st2" d="M20.8-2825.1c0.2,0.2,0.5,0.4,0.7,0.5c0.8,0.7,1.5,1.4,2.3,2.1c0.3,0.4,0.9,0.4,1.3,0
		c0,0,0,0,0-0.1c0.8-0.7,1.5-1.4,2.3-2.1c0.2-0.2,0.5-0.4,0.7-0.6l0.2,0.1c0,0.7,0,1.3,0,2c0,0.2-0.2,0.3-0.3,0.4
		c-1.1,0.5-2.1,1-3.2,1.4c-0.2,0.1-0.4,0.1-0.7,0c-1-0.4-2-0.9-3-1.3c-0.2-0.1-0.4-0.4-0.4-0.6c0-0.6,0-1.2,0-1.8L20.8-2825.1z"/>
	<path id="Path_60" class="st2" d="M22.6-2821.7c1,0.9,2.6,0.9,3.6,0c0,0.9,0,1.6,0,2.2c0,0.1-0.1,0.3-0.2,0.3
		c-0.1,0.1-0.3,0.1-0.5,0.2c-1,0.8-1.8,0.2-2.7-0.2c-0.1-0.1-0.2-0.2-0.2-0.3C22.6-2820.1,22.6-2820.8,22.6-2821.7z"/>
	<path id="Path_61" class="st2" d="M18.9-2823.3c1.2,0.5,2.3,1,3.3,1.5c0.1,0.1,0.2,0.2,0.2,0.3c0,0.7,0,1.3,0,2.2
		c-1.2-0.6-2.3-1.1-3.4-1.6c-0.1-0.1-0.2-0.2-0.2-0.3C18.9-2821.8,18.9-2822.5,18.9-2823.3z"/>
	<path id="Path_62" class="st2" d="M30-2823.2c0,0.8,0,1.5,0,2.1c0,0.1-0.1,0.2-0.2,0.3c-1.1,0.5-2.2,1-3.3,1.6c0-0.8,0-1.5,0-2.1
		c0-0.1,0.1-0.2,0.2-0.3C27.7-2822.2,28.8-2822.7,30-2823.2z"/>
	<path id="Path_63" class="st2" d="M22.6-2814c-1.1-0.6-2.2-1.1-3.2-1.6c-0.1-0.1-0.2-0.2-0.2-0.4c0-0.6,0-1.2,0-2
		c0.5,0.2,0.9,0.4,1.3,0.6c0.3,0.1,0.5,0.3,0.8,0.4C22.9-2816.2,23-2816,22.6-2814z"/>
	<path id="Path_64" class="st2" d="M29.7-2818c0,0.8,0,1.4,0,1.9c0,0.1-0.1,0.3-0.2,0.4c-1,0.6-2.1,1.1-3.3,1.7c0-0.8,0-1.4,0-2.1
		c0-0.1,0.1-0.2,0.2-0.3C27.4-2816.9,28.5-2817.4,29.7-2818z"/>
	<path id="Path_65" class="st2" d="M17.3-2821.4c1.1,0.5,2.1,1,3.1,1.5c0.1,0.1,0.2,0.2,0.3,0.4c0,0.6,0,1.3,0,2.1
		c-1.2-0.6-2.2-1.1-3.2-1.6c-0.1-0.1-0.1-0.2-0.2-0.3C17.3-2820,17.3-2820.7,17.3-2821.4z"/>
	<path id="Path_66" class="st2" d="M31.6-2821.4c0,0.7,0,1.4,0,2c0,0.1-0.1,0.2-0.2,0.3c-1,0.5-2.1,1-3.2,1.6c0-0.8,0-1.4,0-2
		c0-0.2,0.1-0.3,0.3-0.4C29.5-2820.5,30.5-2820.9,31.6-2821.4z"/>
	<path id="Path_67" class="st2" d="M15.3-2824.9c1.1,0.5,2.1,0.9,3.1,1.4c0.1,0.1,0.2,0.2,0.3,0.4c0,0.6,0,1.3,0,2
		c-1.1-0.5-2.1-1-3.1-1.5c-0.1-0.1-0.2-0.2-0.2-0.4C15.3-2823.5,15.3-2824.1,15.3-2824.9z"/>
	<path id="Path_68" class="st2" d="M30.3-2821.1c0-0.8,0-1.4,0-2.1c0-0.1,0.1-0.2,0.2-0.3c1-0.5,2-0.9,3.1-1.4c0,0.8,0,1.4,0,2
		c0,0.1-0.1,0.2-0.2,0.3C32.4-2822.1,31.4-2821.6,30.3-2821.1z"/>
	<path id="Path_69" class="st2" d="M19-2815.9c-1.1-0.6-2.1-1.1-3.1-1.6c-0.1-0.1-0.2-0.2-0.2-0.3c0-0.6,0-1.2,0-1.9
		c0.7,0.4,1.4,0.7,2.1,1c0.8,0.2,1.4,1,1.3,1.8c0,0.1,0,0.1,0,0.2C19-2816.5,19-2816.2,19-2815.9z"/>
	<path id="Path_70" class="st2" d="M33.2-2819.6c0,0,0,0.1,0,0.1c0.1,1.8,0.1,1.8-1.5,2.7c-0.5,0.3-1.1,0.5-1.7,0.9c0-0.8,0-1.4,0-2
		c0-0.1,0.1-0.2,0.2-0.3c0.9-0.5,1.9-0.9,2.8-1.4C33-2819.6,33.1-2819.6,33.2-2819.6z"/>
	<path id="Path_71" class="st2" d="M23.1-2816.2c0.8,0.8,2,0.8,2.8,0c0,0,0,0,0.1-0.1c0,0.9,0.2,1.7-0.1,2.2c-0.4,0.5-1,0.8-1.6,0.8
		c-1-0.1-1.4-0.6-1.4-1.7c0-0.4,0-0.7,0-1.1L23.1-2816.2z"/>
	<path id="Path_72" class="st2" d="M13.9-2823c1,0.5,2,0.9,2.9,1.4c0.1,0.1,0.2,0.2,0.2,0.4c0,0.6,0,1.2,0,1.9
		c-0.3-0.1-0.6-0.2-0.8-0.3c-0.3-0.2-0.7-0.3-1-0.5C13.7-2820.9,13.6-2821.3,13.9-2823z"/>
	<path id="Path_73" class="st2" d="M31.9-2819.3c0-0.8,0-1.4,0-2c0-0.1,0.1-0.3,0.2-0.3c0.9-0.4,1.9-0.9,3-1.4
		c0,0.8-0.1,1.4-0.1,2.1c0,0.1-0.1,0.2-0.2,0.2C33.9-2820.3,32.9-2819.9,31.9-2819.3z"/>
	<path id="Path_74" class="st2" d="M12-2826.3c1,0.5,2,0.9,2.9,1.3c0.1,0.1,0.1,0.2,0.2,0.3c0,0.6,0,1.3,0,2c-1-0.5-1.9-0.9-2.8-1.3
		c-0.1-0.1-0.2-0.2-0.2-0.4C12-2825,12-2825.6,12-2826.3z"/>
	<path id="Path_75" class="st2" d="M33.8-2822.7c0-0.7,0-1.3,0-2c0-0.1,0.1-0.3,0.2-0.4c0.9-0.4,1.8-0.8,2.9-1.3c0,0.7,0,1.3,0,1.9
		c0,0.2-0.1,0.3-0.3,0.4C35.7-2823.6,34.8-2823.2,33.8-2822.7z"/>
	<path id="Path_76" class="st2" d="M20.4-2822.9c-1.2-0.5-2.3-1-3.3-1.5c-0.2-0.1-0.2-0.7-0.3-1c0.7-0.2,1.3-0.3,1.9-0.4
		c0.8-0.1,1.5,0.5,1.6,1.3C20.4-2824,20.4-2823.5,20.4-2822.9z"/>
	<path id="Path_77" class="st2" d="M28.5-2823c0-0.7,0-1.3,0-2c0-0.3,1.2-0.8,1.6-0.7l1.7,0.4c0.2,0.9,0.2,0.9-0.6,1.3
		c-0.8,0.4-1.6,0.7-2.4,1.1C28.7-2823,28.6-2823,28.5-2823z"/>
	<path id="Path_78" class="st2" d="M12.4-2821.4c1,0.5,2,1,2.9,1.4c0.1,0.1,0.2,0.2,0.2,0.3c0,0.6,0,1.2,0,1.9c-1-0.5-1.9-1-2.9-1.5
		c-0.1-0.1-0.2-0.2-0.2-0.3C12.4-2820,12.4-2820.6,12.4-2821.4z"/>
	<path id="Path_79" class="st2" d="M10.6-2824.6c1,0.5,1.9,0.9,2.8,1.3c0.1,0.1,0.2,0.2,0.2,0.3c0,0.6,0,1.2,0,1.9
		c-1-0.5-1.9-0.9-2.8-1.4c-0.1-0.1-0.2-0.2-0.2-0.3C10.6-2823.3,10.6-2823.9,10.6-2824.6z"/>
	<path id="Path_80" class="st2" d="M36.5-2821.3c0,0.7,0,1.3,0,1.8c0,0.2-0.1,0.3-0.3,0.4c-0.9,0.5-1.8,0.9-2.8,1.4c0-0.7,0-1.3,0-2
		c0-0.1,0.1-0.2,0.2-0.3C34.5-2820.4,35.5-2820.8,36.5-2821.3z"/>
	<path id="Path_81" class="st2" d="M13.2-2826c-0.9-0.3-1.9-0.8-2.7-1.3c-0.3-0.2-0.3-1.1-0.2-1.6c0.1-0.4,0.6-0.4,1-0.2
		c0.1,0.1,0.3,0.1,0.5,0.2C13.3-2828.3,13.5-2827.8,13.2-2826z"/>
	<path id="Path_82" class="st2" d="M38.3-2824.6c0,0.7,0,1.2,0,1.8c0,0.2-0.1,0.3-0.2,0.4c-0.9,0.5-1.8,0.9-2.7,1.4c0-0.7,0-1.4,0-2
		c0-0.1,0.1-0.2,0.2-0.3C36.4-2823.7,37.3-2824.1,38.3-2824.6z"/>
	<path id="Path_83" class="st2" d="M35.6-2826c0-0.6,0-1.2,0.1-1.8c0.1-0.3,0.3-0.5,0.6-0.7c0.5-0.3,1-0.5,1.5-0.6
		c0.5-0.2,0.9,0.1,0.9,0.6c0,1.1,0,1.2-1,1.6C37-2826.6,36.4-2826.4,35.6-2826z"/>
	<path id="Path_84" class="st2" d="M11.8-2824.3c-1-0.5-1.9-0.9-2.7-1.3c-0.1-0.1-0.2-0.2-0.2-0.4c0-0.6,0-1.1,0-1.8
		c1,0.4,1.9,0.8,2.7,1.2c0.1,0.1,0.2,0.2,0.2,0.3C11.8-2825.6,11.8-2825,11.8-2824.3z"/>
	<path id="Path_85" class="st2" d="M40-2827.7c0,0.7,0,1.3,0,1.8c0,0.1-0.1,0.3-0.2,0.4c-0.9,0.4-1.7,0.8-2.7,1.3c0-0.7,0-1.3,0-1.9
		c0-0.1,0.1-0.3,0.2-0.4C38.2-2826.9,39.1-2827.3,40-2827.7z"/>
	<path id="Path_86" class="st2" d="M9.3-2822.9c1,0.5,1.8,0.9,2.7,1.3c0.1,0.1,0.2,0.2,0.2,0.4c0,0.6,0,1.1,0,1.8
		c-0.5-0.3-1-0.5-1.5-0.8c-1.4-0.7-1.4-0.7-1.4-2.2C9.2-2822.5,9.2-2822.6,9.3-2822.9z"/>
	<path id="Path_87" class="st2" d="M39.7-2822.9c0,0.7-0.1,1.3-0.1,1.9c0,0.1-0.1,0.2-0.2,0.3c-0.9,0.5-1.7,0.9-2.6,1.4
		c0-0.7,0-1.3,0-1.9c0-0.1,0.1-0.2,0.2-0.3C37.8-2822,38.7-2822.4,39.7-2822.9z"/>
	<path id="Path_88" class="st2" d="M7.6-2826c0.9,0.4,1.8,0.8,2.6,1.2c0.1,0.1,0.2,0.2,0.2,0.3c0,0.6,0,1.2,0,1.9
		c-0.9-0.4-1.8-0.9-2.6-1.3c-0.1-0.1-0.2-0.3-0.2-0.4C7.5-2824.8,7.6-2825.3,7.6-2826z"/>
	<path id="Path_89" class="st2" d="M38.5-2822.6c0-0.7,0-1.3,0-1.8c0-0.1,0.1-0.3,0.2-0.4c0.8-0.4,1.7-0.8,2.6-1.2
		c0,0.7,0,1.2,0,1.8c0,0.2-0.1,0.3-0.3,0.4C40.2-2823.4,39.4-2823,38.5-2822.6z"/>
	<path id="Path_90" class="st2" d="M8.7-2825.7c-1-0.5-1.8-0.8-2.6-1.2c-0.1-0.1-0.2-0.2-0.2-0.3c0-0.6,0-1.1,0-1.8
		c0.9,0.4,1.7,0.8,2.5,1.1c0.1,0.1,0.1,0.1,0.2,0.2C8.6-2827.1,8.7-2826.4,8.7-2825.7z"/>
	<path id="Path_91" class="st2" d="M40.2-2825.7c0-0.8,0.1-1.4,0.1-2c0-0.1,0.1-0.2,0.2-0.2c0.8-0.4,1.6-0.7,2.5-1.1
		c0,0.7,0,1.3,0,1.8c0,0.1-0.1,0.2-0.2,0.3C42-2826.5,41.2-2826.1,40.2-2825.7z"/>
	<path id="Path_92" class="st2" d="M9.1-2820.9c-0.9-0.5-1.7-0.9-2.5-1.3c-0.1-0.1-0.2-0.2-0.2-0.4c-0.1-0.5-0.1-1-0.1-1.8
		c1,0.5,1.9,0.9,2.7,1.4c0.1,0.1,0.1,0.3,0.1,0.5C9.1-2822,9.1-2821.6,9.1-2820.9z"/>
	<path id="Path_93" class="st2" d="M42.6-2824.4c-0.1,0.7-0.1,1.3-0.1,1.9c0,0.1-0.1,0.2-0.2,0.2c-0.8,0.4-1.6,0.8-2.5,1.3
		c0-0.7,0-1.2,0-1.8c0-0.1,0.1-0.2,0.2-0.3C40.8-2823.5,41.7-2823.9,42.6-2824.4z"/>
	<path id="Path_94" class="st2" d="M4.6-2827.4c0.9,0.4,1.7,0.8,2.5,1.2c0.1,0.1,0.2,0.2,0.2,0.3c0.1,0.6,0.1,1.1,0.1,1.9
		c-0.9-0.5-1.8-0.9-2.6-1.3c-0.1-0.1-0.1-0.3-0.2-0.5C4.7-2826.3,4.6-2826.7,4.6-2827.4z"/>
	<path id="Path_95" class="st2" d="M1.7-2828.8c1,0.5,1.8,0.8,2.6,1.3c0.1,0.1,0.2,0.2,0.2,0.4c0,0.5,0,1,0,1.7
		c-0.9-0.4-1.7-0.8-2.5-1.3c-0.1-0.1-0.2-0.4-0.2-0.6C1.7-2827.7,1.7-2828.2,1.7-2828.8z"/>
	<path id="Path_96" class="st2" d="M47.2-2828.8c-0.1,0.7-0.1,1.2-0.1,1.8c0,0.1-0.1,0.3-0.2,0.3c-0.8,0.4-1.6,0.8-2.4,1.2
		c0-0.7,0-1.2,0-1.8c0-0.1,0.1-0.2,0.2-0.3C45.4-2827.9,46.2-2828.3,47.2-2828.8z"/>
	<path id="Path_97" class="st2" d="M44.3-2827.4c0,0.7-0.1,1.3-0.1,1.8c0,0.1-0.1,0.3-0.2,0.3c-0.8,0.4-1.5,0.8-2.4,1.2
		c0-0.7,0.1-1.3,0.1-1.9c0-0.1,0.1-0.2,0.2-0.2C42.5-2826.6,43.3-2826.9,44.3-2827.4z"/>
	<path id="Path_98" class="st2" d="M3.1-2830.3c0.8,0.4,1.5,0.7,2.3,1c0.1,0.1,0.2,0.2,0.3,0.4c0,0.6,0,1.1,0,1.8
		c-0.8-0.4-1.6-0.7-2.4-1.1c-0.1-0.1-0.2-0.2-0.2-0.3C3.1-2829.1,3.1-2829.6,3.1-2830.3z"/>
	<path id="Path_99" class="st2" d="M3.5-2825.7c0.9,0.4,1.7,0.8,2.4,1.2c0.1,0.1,0.2,0.2,0.2,0.4c0,0.5,0,1,0,1.7
		c-0.8-0.4-1.6-0.8-2.4-1.2c-0.1-0.1-0.2-0.3-0.2-0.5C3.5-2824.6,3.5-2825.1,3.5-2825.7z"/>
	<path id="Path_100" class="st2" d="M45.4-2825.7c0,0.7-0.1,1.3-0.1,1.8c0,0.1-0.1,0.2-0.2,0.3c-0.7,0.4-1.5,0.8-2.3,1.2
		c0-0.6,0-1.2,0-1.7c0-0.1,0.1-0.3,0.2-0.4C43.7-2824.9,44.5-2825.3,45.4-2825.7z"/>
	<path id="Path_101" class="st2" d="M45.8-2830.3c0,0.6,0,1.2,0,1.7c0,0.2-0.1,0.3-0.3,0.4c-0.7,0.4-1.4,0.7-2.3,1.1
		c0-0.7,0-1.3,0-1.9c0-0.1,0.2-0.2,0.3-0.3C44.3-2829.6,45-2829.9,45.8-2830.3z"/>
	<path id="Path_102" class="st2" d="M4.2-2832c1.4,0.2,2.8,1.8,2.6,3.1c-0.8-0.4-1.6-0.7-2.4-1.1c-0.1-0.1-0.2-0.2-0.2-0.3
		C4.2-2830.8,4.2-2831.4,4.2-2832z"/>
	<path id="Path_103" class="st2" d="M44.6-2832c0,0.6,0,1.1,0,1.7c0,0.2-0.2,0.3-0.3,0.4c-0.7,0.3-1.5,0.7-2.4,1.1
		c0-0.4-0.1-0.9,0.1-1.1C42.8-2830.7,43.3-2831.8,44.6-2832z"/>
	<path id="Path_104" class="st2" d="M16.6-2824.5c-1-0.5-2-0.9-2.9-1.3c-0.2-0.1-0.2-0.5-0.3-0.8c0-0.3,0-0.6,0-0.9
		c0.3,0.3,0.5,0.5,0.8,0.7c0.6,0.4,1.2,0.8,1.8,1.1C16.7-2825.5,16.8-2825.2,16.6-2824.5z"/>
	<path id="Path_105" class="st2" d="M32.3-2824.6c-0.2-0.6-0.2-1,0.5-1.2c0.5-0.2,1-0.4,1.4-0.7c0.4-0.3,0.8-0.6,1.2-1
		c0.3,1,0.2,1.5-0.7,1.9C33.9-2825.2,33.1-2824.9,32.3-2824.6z"/>
	<path id="Path_106" class="st2" d="M4-2830.1c-0.8-0.4-1.5-0.6-2.3-1c-0.2-0.1-0.2-0.5-0.3-0.6c0.8-0.2,1.5-0.3,2.2-0.4
		c0.1,0,0.3,0.2,0.3,0.2C4-2831.3,4-2830.8,4-2830.1z"/>
	<path id="Path_107" class="st2" d="M47.4-2831.7c0.1,0.3-0.1,0.6-0.6,0.8c-0.6,0.2-1.3,0.5-1.9,0.8c0-0.7,0-1.2,0-1.8
		c0-0.1,0.3-0.2,0.4-0.2C46-2832,46.6-2831.9,47.4-2831.7z"/>
	<path id="Path_108" class="st2" d="M3.3-2823.9c-1.5-0.6-1.6-0.8-1.5-2.5C3.2-2826.3,3.6-2825.6,3.3-2823.9z"/>
	<path id="Path_109" class="st2" d="M7.1-2829.5l2.8,0.8v1.2c-0.9-0.4-1.8-0.8-2.7-1.3C7.1-2828.8,7.2-2829.3,7.1-2829.5z"/>
	<path id="Path_110" class="st2" d="M47-2826.4c0.2,1.6-0.1,2.1-1.4,2.4C45.3-2825.5,45.5-2826,47-2826.4z"/>
	<path id="Path_111" class="st2" d="M41.7-2829.5c0.2,0.4,0,0.8-0.4,1c-0.1,0-0.1,0-0.2,0.1c-0.7,0.3-1.4,0.6-2.2,1
		c0-0.3,0-0.5,0-0.7c0-0.5,0.1-0.7,0.6-0.7C40.3-2829,41-2829.2,41.7-2829.5z"/>
	<path id="Path_112" class="st2" d="M1.6-2830.8c1.1,0.2,1.2,0.3,1.3,1.3c0,0.3,0,0.6,0.1,0.9C1.9-2828.3,1.4-2829.3,1.6-2830.8z"/>
	<path id="Path_113" class="st2" d="M46-2828.5c0-2.1-0.2-1.9,1.2-2.4C47.6-2829.6,47.2-2828.8,46-2828.5z"/>
	<path id="Path_114" class="st2" d="M19.3-2826l0.7-0.9l0.7,1.3l-0.1,0.1L19.3-2826z"/>
	<path id="Path_115" class="st2" d="M28.8-2826.8l0.8,0.8l-1.4,0.6l-0.1-0.1L28.8-2826.8z"/>
	<path id="Path_116" class="st2" d="M5.2-2831.9l-1.3-0.5l0.6-0.8L5.2-2831.9z"/>
	<path id="Path_117" class="st2" d="M43.8-2832.1l0.5-1l0.6,0.7l-1,0.5L43.8-2832.1z"/>
	<path id="Path_118" class="st2" d="M11-2829.4l0.8-0.8l0.1,1.2L11-2829.4z"/>
	<path id="Path_119" class="st2" d="M36.9-2829.1l0.2-1.2l0.7,0.8L36.9-2829.1z"/>
</g>
</svg>
