<svg xmlns="http://www.w3.org/2000/svg" width="106.394" height="71.771" viewBox="0 0 106.394 71.771">
  <g id="Group_215" data-name="Group 215" transform="translate(147.319 -441.591)">
    <path id="Path_158" data-name="Path 158" d="M-147.309,480.8q0-13.575-.01-27.15a2.539,2.539,0,0,1,1.474-2.621,3.9,3.9,0,0,1,1.5-.241c2.221-.025,4.443-.008,6.665-.012.874,0,1.016-.14,1.022-1.025.011-1.66,0-3.32.011-4.981a2.858,2.858,0,0,1,3.156-3.174,92.453,92.453,0,0,1,16.06,1.272,66.918,66.918,0,0,1,14,3.7A23.52,23.52,0,0,1-94.7,452.11c.38.411.689.367,1.053-.015a25.259,25.259,0,0,1,9.658-5.9,65.734,65.734,0,0,1,11.016-2.963,92.641,92.641,0,0,1,18.48-1.635,2.816,2.816,0,0,1,2.808,2.825c.037,1.73,0,3.461.018,5.191.008,1.126.045,1.154,1.138,1.156,2.221,0,4.443-.005,6.664.007a2.653,2.653,0,0,1,2.933,2.965q0,27.08,0,54.16a2.588,2.588,0,0,1-2.926,2.931q-20.029.016-40.058.025c-.351,0-.7,0-1.052-.023a3.481,3.481,0,0,0-2.3.742,9.347,9.347,0,0,1-3.244,1.373,16.561,16.561,0,0,1-8.594-.34,16.452,16.452,0,0,1-2.262-1.216,3.4,3.4,0,0,0-1.371-.509c-5-.037-10.008-.023-15.013-.026q-13.435-.011-26.869-.028a2.422,2.422,0,0,1-2.688-2.748Q-147.31,494.442-147.309,480.8Zm89.929-10.219v-.911q0-10.556,0-21.114c0-.953-.162-1.105-1.111-1.062-.607.027-1.213.076-1.82.115-7.651.5-15.207,1.494-22.411,4.31a21.162,21.162,0,0,0-5.538,2.959,6,6,0,0,0-2.519,5.042c.066,7.482.029,14.964.03,22.446q0,8.978.012,17.957c0,.256.066.622.236.735.141.094.511-.059.726-.19a34.576,34.576,0,0,1,6.713-3.132,74.628,74.628,0,0,1,11.426-2.778,113.11,113.11,0,0,1,12.744-1.394c1.509-.089,1.513-.063,1.513-1.59Q-57.381,481.274-57.38,470.577ZM-97.747,501.22a10.9,10.9,0,0,0,.114-1.1q.012-10.907.008-21.815c0-6.243-.01-12.486.028-18.729a5.1,5.1,0,0,0-1.649-3.946,13.359,13.359,0,0,0-2.39-1.815,42.315,42.315,0,0,0-12.824-4.495,98.961,98.961,0,0,0-15.3-1.834c-1.043-.048-1.143.031-1.143,1.057q0,21.956,0,43.912c0,1.043.025,1.013,1.048,1.1,3.283.27,6.579.458,9.839.9a91.688,91.688,0,0,1,9.426,1.771,68.644,68.644,0,0,1,7.853,2.535C-101.071,499.393-99.52,500.334-97.747,501.22Zm12.78,3.518.033.286a8.67,8.67,0,0,0,.958.1q18.064.014,36.127.015c.953,0,1.03-.08,1.048-1.041,0-.14,0-.281,0-.421l0-44.475c0-.631-.01-1.263,0-1.894.007-.525-.218-.767-.762-.752-.818.023-1.636,0-2.455.009-1.711.022-1.651-.251-1.651,1.682,0,12.51-.027,25.02.025,37.529.008,1.961-1.092,3.648-3.452,3.505a34.961,34.961,0,0,0-4.133.119c-8.053.473-16.009,1.474-23.6,4.41C-83.552,504.092-84.255,504.427-84.967,504.737ZM-103.4,505l.012-.23c-.321-.171-.631-.369-.965-.507a61.033,61.033,0,0,0-14.732-3.879,106.973,106.973,0,0,0-14.743-1.125,2.521,2.521,0,0,1-2.436-1.474,5.2,5.2,0,0,1-.367-2.1q-.03-18.834-.014-37.669c0-.233,0-.468-.007-.7-.012-.47-.218-.746-.725-.743-1.169.005-2.338,0-3.507,0a.6.6,0,0,0-.679.7c0,.281-.005.562-.005.842q0,20.589,0,41.178c0,1.636-.007,3.274,0,4.91.005.79.157.932.957.939,1.052.009,2.1,0,3.157,0q16.59,0,33.18-.015A6.151,6.151,0,0,0-103.4,505Z" transform="translate(0)" fill="#f2f2f2"/>
  </g>
</svg>
