<svg xmlns="http://www.w3.org/2000/svg" xmlns:xlink="http://www.w3.org/1999/xlink" width="30.265" height="30.265" viewBox="0 0 30.265 30.265">
  <defs>
    <filter id="Icon_awesome-question-circle" x="0" y="0" width="30.265" height="30.265" filterUnits="userSpaceOnUse">
      <feOffset dx="2" dy="2" input="SourceAlpha"/>
      <feGaussianBlur stdDeviation="1.5" result="blur"/>
      <feFlood flood-opacity="0.431"/>
      <feComposite operator="in" in2="blur"/>
      <feComposite in="SourceGraphic"/>
    </filter>
  </defs>
  <g transform="matrix(1, 0, 0, 1, 0, 0)" filter="url(#Icon_awesome-question-circle)">
    <path id="Icon_awesome-question-circle-2" data-name="Icon awesome-question-circle" d="M21.828,11.2A10.633,10.633,0,1,1,11.2.563,10.632,10.632,0,0,1,21.828,11.2ZM11.48,4.078a5.553,5.553,0,0,0-5,2.734.515.515,0,0,0,.116.7L8.088,8.637A.514.514,0,0,0,8.8,8.546c.766-.971,1.291-1.535,2.457-1.535.876,0,1.959.564,1.959,1.413,0,.642-.53.972-1.395,1.457-1.009.565-2.343,1.269-2.343,3.029v.171a.515.515,0,0,0,.514.514h2.4a.515.515,0,0,0,.514-.514v-.057c0-1.22,3.566-1.271,3.566-4.573C16.476,5.964,13.9,4.078,11.48,4.078ZM11.2,14.711a1.972,1.972,0,1,0,1.972,1.972A1.974,1.974,0,0,0,11.2,14.711Z" transform="translate(1.94 1.94)" fill="#fafafa"/>
  </g>
</svg>
