<svg xmlns="http://www.w3.org/2000/svg" width="84" height="84" viewBox="0 0 84 84">
  <defs>
    <style>
      .cls-1 {
        fill: #fff;
      }
    </style>
  </defs>
  <g id="Group_26" data-name="Group 26" transform="translate(-545 -455)">
    <path id="Ellipse_2" data-name="Ellipse 2" class="cls-1" d="M42,3A39.011,39.011,0,0,0,26.82,77.936,39.011,39.011,0,0,0,57.18,6.064,38.753,38.753,0,0,0,42,3m0-3A42,42,0,1,1,0,42,42,42,0,0,1,42,0Z" transform="translate(545 455)"/>
    <path id="Icon_awesome-pray" data-name="Icon awesome-pray" class="cls-1" d="M24.82,12.41a6.2,6.2,0,1,0-6.2-6.2A6.2,6.2,0,0,0,24.82,12.41ZM21.85,28.867a3.882,3.882,0,0,0,5.426.506l8.532-6.982a3.878,3.878,0,1,0-4.914-6l-5.569,4.557-3.772-4.49A7.089,7.089,0,0,0,15.347,14,6.968,6.968,0,0,0,9.882,17.58L5.1,26.5a9.048,9.048,0,0,0,3.315,12l4.344,3.383H3.878a3.878,3.878,0,1,0,0,7.756H24.044a3.9,3.9,0,0,0,2.742-6.62L16.135,32.368l3.374-6.289Z" transform="translate(568.385 472.18)"/>
  </g>
</svg>
