<?xml version="1.0" encoding="utf-8"?>
<!-- Generator: Adobe Illustrator 23.0.5, SVG Export Plug-In . SVG Version: 6.00 Build 0)  -->
<svg version="1.1" id="Layer_1" xmlns="http://www.w3.org/2000/svg" xmlns:xlink="http://www.w3.org/1999/xlink" x="0px" y="0px"
	 viewBox="0 0 102 102" style="enable-background:new 0 0 102 102;" xml:space="preserve">
<style type="text/css">
	.st0{fill:none;}
	.st1{fill:none;stroke:#FFFFFF;stroke-width:3;}
	.st2{fill:#FFFFFF;}
</style>
<g id="Ellipse_2-5" transform="translate(545 455)">
	<circle class="st0" cx="-494" cy="-404" r="42"/>
	<circle class="st1" cx="-494" cy="-404" r="40.5"/>
</g>
<path id="Icon_awesome-moon" class="st2" d="M57,75.1c7.3-1.4,13.5-6,17-12.5c0.3-0.6,0.1-1.3-0.5-1.6c-0.3-0.2-0.7-0.2-1-0.1
	c-9.8,3.9-21-0.8-25-10.7c-3.1-7.6-0.9-16.4,5.3-21.7c0.5-0.4,0.5-1.1,0.1-1.6c-0.2-0.3-0.5-0.4-0.9-0.4
	c-13.5,0.1-24.4,11.2-24.3,24.7s11.2,24.4,24.7,24.3C54.1,75.5,55.6,75.3,57,75.1z"/>
</svg>
