<svg xmlns="http://www.w3.org/2000/svg" width="84" height="84" viewBox="0 0 84 84">
  <defs>
    <style>
      .cls-1 {
        fill: #fff;
      }
    </style>
  </defs>
  <g id="Group_29" data-name="Group 29" transform="translate(-545 -455)">
    <path id="Ellipse_2" data-name="Ellipse 2" class="cls-1" d="M42,3A39.011,39.011,0,0,0,26.82,77.936,39.011,39.011,0,0,0,57.18,6.064,38.753,38.753,0,0,0,42,3m0-3A42,42,0,1,1,0,42,42,42,0,0,1,42,0Z" transform="translate(545 455)"/>
    <path id="Icon_awesome-stop-circle" data-name="Icon awesome-stop-circle" class="cls-1" d="M20.78.563A20.218,20.218,0,1,0,41,20.78,20.214,20.214,0,0,0,20.78.563ZM28.607,27.3a1.308,1.308,0,0,1-1.3,1.3H14.259a1.308,1.308,0,0,1-1.3-1.3V14.259a1.308,1.308,0,0,1,1.3-1.3H27.3a1.308,1.308,0,0,1,1.3,1.3Z" transform="translate(566.22 476.22)"/>
  </g>
</svg>
