<?xml version="1.0" encoding="utf-8"?>
<!-- Generator: Adobe Illustrator 23.0.5, SVG Export Plug-In . SVG Version: 6.00 Build 0)  -->
<svg version="1.1" id="Layer_1" xmlns="http://www.w3.org/2000/svg" xmlns:xlink="http://www.w3.org/1999/xlink" x="0px" y="0px"
	 viewBox="0 0 102 102" style="enable-background:new 0 0 102 102;" xml:space="preserve">
<style type="text/css">
	.st0{fill:#FFFFFF;}
	.st1{fill:none;}
	.st2{fill:none;stroke:#FFFFFF;stroke-width:3;}
</style>
<g id="Group_24" transform="translate(-539 -450)">
	<g transform="matrix(1, 0, 0, 1, 539, 450)">
		<path id="Icon_awesome-hand-pointer-2" class="st0" d="M72.4,45.6v9.2c0,0.3,0,0.6-0.1,0.9l-3.1,13c-0.4,1.7-2,3-3.7,3H45.6
			c-1.2,0-2.4-0.6-3.1-1.6L30.3,53.2c-1.3-1.7-0.9-4.1,0.7-5.4s4.1-0.9,5.4,0.7c0,0,0.1,0.1,0.1,0.1l3,4.2V26.5
			c0-2.1,1.7-3.8,3.8-3.8s3.8,1.7,3.8,3.8v19.1h0.8v-3.8c0-2.1,1.7-3.8,3.8-3.8c2.1,0,3.8,1.7,3.8,3.8v3.8h0.8v-2.3
			c0-2.1,1.7-3.8,3.8-3.8s3.8,1.7,3.8,3.8v2.3h0.8c0-2.1,1.7-3.8,3.8-3.8C70.7,41.8,72.4,43.5,72.4,45.6L72.4,45.6z M47.9,53.3h-0.8
			v9.2h0.8V53.3z M56.4,53.3h-0.8v9.2h0.8L56.4,53.3z M64.8,53.3H64v9.2h0.8V53.3z"/>
	</g>
	<g>
		<g transform="matrix(1, 0, 0, 1, 539, 450)">
			<g id="Ellipse_2-3" transform="translate(6 5)">
				<circle class="st1" cx="45" cy="46" r="42"/>
				<circle class="st2" cx="45" cy="46" r="40.5"/>
			</g>
		</g>
		<g id="Ellipse_2-5" transform="translate(545 455)">
			<circle class="st1" cx="45" cy="46" r="42"/>
			<circle class="st2" cx="45" cy="46" r="40.5"/>
		</g>
	</g>
</g>
</svg>
