<svg xmlns="http://www.w3.org/2000/svg" width="49.837" height="35.042" viewBox="0 0 49.837 35.042">
  <path id="Icon_awesome-youtube" data-name="Icon awesome-youtube" d="M49.845,9.983a6.262,6.262,0,0,0-4.406-4.435C41.553,4.5,25.968,4.5,25.968,4.5S10.384,4.5,6.5,5.548A6.262,6.262,0,0,0,2.091,9.983C1.05,13.895,1.05,22.056,1.05,22.056s0,8.162,1.041,12.073A6.169,6.169,0,0,0,6.5,38.493c3.887,1.048,19.471,1.048,19.471,1.048s15.584,0,19.471-1.048a6.169,6.169,0,0,0,4.406-4.364c1.041-3.912,1.041-12.073,1.041-12.073s0-8.162-1.041-12.073ZM20.871,29.466V14.646L33.9,22.056l-13.025,7.41Z" transform="translate(-1.05 -4.5)" fill="#fafafa"/>
</svg>
